<?xml version="1.0" encoding="iso-8859-1"?>
<!-- Uploaded to: SVG Repo, www.svgrepo.com, Generator: SVG Repo Mixer Tools -->
<!DOCTYPE svg PUBLIC "-//W3C//DTD SVG 1.1//EN" "http://www.w3.org/Graphics/SVG/1.1/DTD/svg11.dtd">
<svg fill="#000000" height="800px" width="800px" version="1.1" id="Capa_1" xmlns="http://www.w3.org/2000/svg" xmlns:xlink="http://www.w3.org/1999/xlink" 
	 viewBox="0 0 477.655 477.655" xml:space="preserve">
<g>
	<path d="M440.367,440.415l-10.173-29.91c-19.102-56.262-70.83-94.605-129.763-97.121c-5.187,4.03-10.655,7.493-16.322,10.521
		c-8.449,22.185-36.836,28.195-53.468,11.205c-19.676-1.738-37.69-9.511-53.422-21.725c-58.933,2.508-110.647,40.851-129.763,97.121
		L37.3,440.415c-2.936,8.603-1.522,18.084,3.774,25.469c5.279,7.391,13.821,11.771,22.906,11.771h349.693
		c9.083,0,17.626-4.379,22.906-11.771C441.873,458.499,443.286,449.018,440.367,440.415z"/>
	<path d="M277.758,290.619c34.212-24.047,58.141-77.151,58.141-128.491c0-145.907-194.133-145.752-194.133,0
		c0,62.397,35.33,127.303,81.546,139.556c4.456-12.626,16.382-21.757,30.515-21.757C263.331,279.926,271.81,284.095,277.758,290.619
		z"/>
	<path d="M99.169,223.042c4.813,18.906,31.044,13.704,31.044-3.805c0-70.178,3.354-76.731-6.041-84.348
		C145.679,2.361,330.946,3.355,353.495,134.904c-9.381,7.641-6.025,14.163-6.025,84.333c0,5.489,2.95,10.095,7.189,12.952
		c0,54.594-22.145,51.402-88.736,69.052c-10.295-11.174-28.683-3.899-28.683,11.173c0,18.876,27.053,23.293,32.302,4.318
		c53.762-14.256,101.018-18.752,101.018-72.484v-11.027c3.991-2.066,6.817-5.729,7.951-10.179c51.822-1.056,51.838-78.719,0-79.775
		c-1.072-4.24-3.711-7.703-7.423-9.815c1.336-15.902-1.94-36.805-11.057-56.985C296.626-54.368,109.355-3.176,106.422,123.622
		c-0.404,4.294-0.078,7.338,0.17,9.83c-3.712,2.112-6.351,5.575-7.423,9.815c-21.71,0.419-39.212,18.084-39.212,39.888
		C59.957,204.958,77.459,222.622,99.169,223.042z"/>
</g>
</svg>